<svg xmlns="http://www.w3.org/2000/svg" xmlns:xlink="http://www.w3.org/1999/xlink" viewBox="0 0 696.2 696.33"><defs><style>.cls-1{fill:none;}.cls-2{clip-path:url(#clip-path);}.cls-3{fill:#4c4c4c;}.cls-4{fill:#fcc53a;}</style><clipPath id="clip-path" transform="translate(0 -0.63)"><rect class="cls-1" width="696.96" height="697.92"/></clipPath></defs><title>资源 1</title><g id="图层_2" data-name="图层 2"><g id="图层_1-2" data-name="图层 1"><g class="cls-2"><path class="cls-3" d="M348,82.55c147,0,266.24,119.2,266.24,266.24S495,615,348,615a263.8,263.8,0,0,1-113-25.19c-16.59-7.78-35.22-11.46-58.36-11.46-17.82,0-36.46,2-54.48,4.3,3.68-34.21,7.37-75.78-12.09-114.08a266.25,266.25,0,0,1,238-386M348,.63A348.36,348.36,0,0,0,37.12,505.46C57.6,545.81,17.86,630.8,51.66,660.29c6.55,5.74,18.22,7.58,32.15,7.58,28.06,0,66.15-7.58,92.78-7.58,9.62,0,17.81,1,23.55,3.69A348.16,348.16,0,1,0,348,.63Z" transform="translate(0 -0.63)"/></g><path class="cls-4" d="M446.1,491.74a41.16,41.16,0,0,1-41,41H282.26a41,41,0,1,1,0-81.91H405.14a41.15,41.15,0,0,1,41,40.95Z" transform="translate(0 -0.63)"/></g></g></svg>